SplineFontDB: 3.2
FontName: InupiaqNumbers
FullName: InupiaqNumbers
FamilyName: InupiaqNumbers
Weight: Regular
Copyright: Copyright (c) 2020, Nathan
UComments: "2020-1-1: Created with FontForge (http://fontforge.org)"
Version: 001.000
ItalicAngle: 0
UnderlinePosition: -120.029
UnderlineWidth: 60.0146
Ascent: 1000
Descent: 205
InvalidEm: 0
LayerCount: 2
Layer: 0 0 "Back" 1
Layer: 1 0 "Fore" 0
XUID: [1021 498 -2101142793 9498728]
OS2Version: 0
OS2_WeightWidthSlopeOnly: 0
OS2_UseTypoMetrics: 1
CreationTime: 1577860449
ModificationTime: 1577862474
OS2TypoAscent: 0
OS2TypoAOffset: 1
OS2TypoDescent: 0
OS2TypoDOffset: 1
OS2TypoLinegap: 0
OS2WinAscent: 0
OS2WinAOffset: 1
OS2WinDescent: 0
OS2WinDOffset: 1
HheadAscent: 0
HheadAOffset: 1
HheadDescent: 0
HheadDOffset: 1
OS2Vendor: 'PfEd'
MarkAttachClasses: 1
DEI: 91125
Encoding: UnicodeFull
UnicodeInterp: none
NameList: AGL For New Fonts
DisplaySize: -48
AntiAlias: 1
FitToEm: 0
WinInfo: 58558 38 14
BeginPrivate: 0
EndPrivate
BeginChars: 1114112 22

StartChar: uniE5A0
Encoding: 58784 58784 1
Width: 700
VWidth: 1024
Flags: HW
HStem: 100 0 700 0 800 0 900 0
VStem: 100 0 600 0
LayerCount: 2
Fore
SplineSet
75.0049022365 900 m 0
 75.0049022365 906.39969202 77.4440449811 912.79938404 82.3223304703 917.67766953 c 0
 87.2006159596 922.555955019 93.6003079798 924.995097764 100 924.995097764 c 0
 108.561414581 924.995097764 116.969194042 920.027562694 121.211004295 913.240666289 c 2
 621.211004295 113.240666289 l 2
 623.733733274 109.204299923 624.995097764 104.602149961 624.995097764 100 c 0
 624.995097764 93.6003079798 622.555955019 87.2006159596 617.67766953 82.3223304703 c 0
 612.79938404 77.4440449811 606.39969202 75.0049022365 600 75.0049022365 c 0
 591.438585419 75.0049022365 583.030805958 79.9724373057 578.788995705 86.7593337114 c 2
 78.7889957046 886.759333711 l 2
 76.2662667258 890.795700077 75.0049022365 895.397850039 75.0049022365 900 c 0
EndSplineSet
EndChar

StartChar: uniE5A1
Encoding: 58785 58785 2
Width: 700
VWidth: 1024
Flags: HW
HStem: 100 0 700 0 800 0 900 0
VStem: 100 0 225 0 267 0 350 0 433 0 475 0 600 0
LayerCount: 2
Fore
SplineSet
75.0049022365 900 m 4
 75.0049022365 906.39969202 77.4440449811 912.79938404 82.3223304703 917.67766953 c 4
 87.2006159596 922.555955019 93.6003079798 924.995097764 100 924.995097764 c 4
 111.054700998 924.995097764 120.848911573 917.104222506 123.854715424 907.485650182 c 6
 350 183.820739539 l 5
 576.145284576 907.485650182 l 6
 579.15066825 917.102877939 588.94065004 924.995097764 600 924.995097764 c 4
 606.39969202 924.995097764 612.79938404 922.555955019 617.67766953 917.67766953 c 4
 622.555955019 912.79938404 624.995097764 906.39969202 624.995097764 900 c 4
 624.995097764 897.473582738 624.614970317 894.947165476 623.854715424 892.514349818 c 6
 373.854715424 92.5143498179 l 6
 370.84933175 82.8971220613 361.05934996 75.0049022365 350 75.0049022365 c 4
 338.945299002 75.0049022365 329.151088427 82.8957774944 326.145284576 92.5143498179 c 6
 76.145284576 892.514349818 l 6
 75.385029683 894.947165476 75.0049022365 897.473582738 75.0049022365 900 c 4
EndSplineSet
EndChar

StartChar: uniE5A2
Encoding: 58786 58786 3
Width: 700
VWidth: 1024
Flags: HW
HStem: 100 0 700 0 800 0 900 0
VStem: 100 0 225 0 267 0 350 0 433 0 475 0 600 0
LayerCount: 2
Fore
SplineSet
75.0049022365 900 m 0
 75.0049022365 906.39969202 77.4440449811 912.79938404 82.3223304703 917.67766953 c 0
 87.2006159596 922.555955019 93.6003079798 924.995097764 100 924.995097764 c 0
 111.91582805 924.995097764 122.208412665 915.94781768 124.465058913 905.137536251 c 2
 266.926522144 222.687412992 l 1
 408.528824143 905.108145519 l 2
 410.774715409 915.931717887 421.068267966 924.995097764 433 924.995097764 c 0
 444.91582805 924.995097764 455.208412665 915.94781768 457.465058913 905.137536251 c 2
 624.465058913 105.137536251 l 2
 624.818418147 103.444797408 624.995097764 101.722398704 624.995097764 100 c 0
 624.995097764 93.6003079798 622.555955019 87.2006159596 617.67766953 82.3223304703 c 0
 612.79938404 77.4440449811 606.39969202 75.0049022365 600 75.0049022365 c 0
 588.08417195 75.0049022365 577.791587335 84.0521823201 575.534941087 94.8624637493 c 2
 433.073477856 777.312587008 l 1
 291.471175857 94.8918544806 l 2
 289.225284591 84.0682821131 278.931732034 75.0049022365 267 75.0049022365 c 0
 255.08417195 75.0049022365 244.791587335 84.0521823201 242.534941087 94.8624637493 c 2
 75.5349410865 894.862463749 l 2
 75.1815818532 896.555202592 75.0049022365 898.277601296 75.0049022365 900 c 0
EndSplineSet
EndChar

StartChar: uniE5A3
Encoding: 58787 58787 4
Width: 700
VWidth: 1024
Flags: HW
HStem: 100 0 700 0 800 0 900 0
VStem: 100 0 225 0 267 0 350 0 433 0 475 0 600 0
LayerCount: 2
Fore
SplineSet
75.0049022365 900 m 4
 75.0049022365 906.39969202 77.4440449811 912.79938404 82.3223304703 917.67766953 c 4
 87.2006159596 922.555955019 93.6003079798 924.995097764 100 924.995097764 c 4
 112.326181667 924.995097764 122.902408781 915.348013787 124.693635237 903.884164473 c 6
 225 261.923429987 l 5
 325.306364763 903.884164473 l 6
 327.09708802 915.344793312 337.668099304 924.995097764 350 924.995097764 c 4
 362.326181667 924.995097764 372.902408781 915.348013787 374.693635237 903.884164473 c 6
 475 261.923429987 l 5
 575.306364763 903.884164473 l 6
 577.09708802 915.344793312 587.668099304 924.995097764 600 924.995097764 c 4
 606.39969202 924.995097764 612.79938404 922.555955019 617.67766953 917.67766953 c 4
 622.555955019 912.79938404 624.995097764 906.39969202 624.995097764 900 c 4
 624.995097764 898.701037821 624.894610255 897.402075642 624.693635237 896.115835527 c 6
 499.693635237 96.1158355271 l 6
 497.90291198 84.6552066881 487.331900696 75.0049022365 475 75.0049022365 c 4
 462.673818333 75.0049022365 452.097591219 84.6519862127 450.306364763 96.1158355271 c 6
 350 738.076570013 l 5
 249.693635237 96.1158355271 l 6
 247.90291198 84.6552066881 237.331900696 75.0049022365 225 75.0049022365 c 4
 212.673818333 75.0049022365 202.097591219 84.6519862127 200.306364763 96.1158355271 c 6
 75.3063647635 896.115835527 l 6
 75.1053897455 897.402075642 75.0049022365 898.701037821 75.0049022365 900 c 4
EndSplineSet
EndChar

StartChar: uniE5A4
Encoding: 58788 58788 5
Width: 700
VWidth: 1024
Flags: HW
HStem: 100 0 367 0 500 0 633 0 900 0
VStem: 100 0 225 0 267 0 350 0 433 0 475 0 600 0
LayerCount: 2
Fore
SplineSet
600 924.995097764 m 0
 606.39969202 924.995097764 612.79938404 922.555955019 617.67766953 917.67766953 c 0
 622.555955019 912.79938404 624.995097764 906.39969202 624.995097764 900 c 0
 624.995097764 895.397850039 623.733733274 890.795700077 621.211004295 886.759333711 c 2
 121.211004295 86.7593337114 l 2
 116.9710984 79.9754842794 108.56148052 75.0049022365 100 75.0049022365 c 0
 93.6003079798 75.0049022365 87.2006159596 77.4440449811 82.3223304703 82.3223304703 c 0
 77.4440449811 87.2006159596 75.0049022365 93.6003079798 75.0049022365 100 c 0
 75.0049022365 104.602149961 76.2662667258 109.204299923 78.7889957046 113.240666289 c 2
 578.788995705 913.240666289 l 2
 583.0289016 920.024515721 591.43851948 924.995097764 600 924.995097764 c 0
EndSplineSet
EndChar

StartChar: uniE5A5
Encoding: 58789 58789 7
Width: 700
VWidth: 1024
Flags: HW
HStem: 100 0 600 0 700 0 800 0 900 0
VStem: 100 0 225 0 267 0 350 0 433 0 475 0 600 0
LayerCount: 2
Fore
SplineSet
600 924.995097764 m 4
 606.39969202 924.995097764 612.79938404 922.555955019 617.67766953 917.67766953 c 4
 622.555955019 912.79938404 624.995097764 906.39969202 624.995097764 900 c 4
 624.995097764 888.014682581 615.849019416 877.676336315 604.931311034 875.492794638 c 6
 142.819199709 783.070372373 l 5
 620.359485207 114.513972676 l 6
 623.449893578 110.187400957 624.995097764 105.093700478 624.995097764 100 c 4
 624.995097764 93.6003079798 622.555955019 87.2006159596 617.67766953 82.3223304703 c 4
 612.79938404 77.4440449811 606.39969202 75.0049022365 600 75.0049022365 c 4
 592.053450865 75.0049022365 584.07392137 79.2792581157 579.640514793 85.4860273243 c 6
 79.6405147928 785.486027324 l 6
 76.5501064219 789.812599043 75.0049022365 794.906299522 75.0049022365 800 c 4
 75.0049022365 811.985317419 84.1509805837 822.323663685 95.0686889661 824.507205362 c 6
 595.068688966 924.507205362 l 6
 596.694996973 924.832466963 598.347498486 924.995097764 600 924.995097764 c 4
EndSplineSet
EndChar

StartChar: uniE5A6
Encoding: 58790 58790 8
Width: 700
VWidth: 1024
Flags: HW
HStem: 100 0 600 0 700 0 800 0 900 0
VStem: 100 0 225 0 267 0 350 0 433 0 475 0 600 0
LayerCount: 2
Fore
SplineSet
600 924.995097764 m 4
 606.39969202 924.995097764 612.79938404 922.555955019 617.67766953 917.67766953 c 4
 622.555955019 912.79938404 624.995097764 906.39969202 624.995097764 900 c 4
 624.995097764 888.014682581 615.849019416 877.676336315 604.931311034 875.492794638 c 6
 133.277335971 781.161999626 l 5
 350 174.338540345 l 5
 576.462654677 808.43397344 l 6
 579.722337891 817.561086441 589.309779411 824.995097764 600 824.995097764 c 4
 606.39969202 824.995097764 612.79938404 822.555955019 617.67766953 817.67766953 c 4
 622.555955019 812.79938404 624.995097764 806.39969202 624.995097764 800 c 4
 624.995097764 797.143582224 624.509180284 794.287164449 623.537345323 791.56602656 c 6
 373.537345323 91.5660265605 l 6
 370.277662109 82.438913559 360.690220589 75.0049022365 350 75.0049022365 c 4
 339.314433621 75.0049022365 329.722629531 82.4380969671 326.462654677 91.5660265605 c 6
 76.4626546765 791.56602656 l 6
 75.4908197165 794.287164449 75.0049022365 797.143582224 75.0049022365 800 c 4
 75.0049022365 811.985317419 84.1509805837 822.323663685 95.0686889661 824.507205362 c 6
 595.068688966 924.507205362 l 6
 596.694996973 924.832466963 598.347498486 924.995097764 600 924.995097764 c 4
EndSplineSet
EndChar

StartChar: uniE5A7
Encoding: 58791 58791 9
Width: 700
VWidth: 1024
Flags: HW
HStem: 100 0 600 0 700 0 800 0 900 0
VStem: 100 0 225 0 267 0 350 0 433 0 475 0 600 0
LayerCount: 2
Fore
SplineSet
600 924.995097764 m 4
 606.39969202 924.995097764 612.79938404 922.555955019 617.67766953 917.67766953 c 4
 622.555955019 912.79938404 624.995097764 906.39969202 624.995097764 900 c 4
 624.995097764 888.014682581 615.849019416 877.676336315 604.931311034 875.492794638 c 6
 130.335678342 780.5736681 l 5
 266.926985549 208.035254657 l 5
 408.682284397 805.798563052 l 6
 411.163940039 816.263375998 421.306102173 824.995097764 433 824.995097764 c 4
 444.676262857 824.995097764 454.817018668 816.280624818 457.309886353 805.831478834 c 6
 624.309886353 105.831478834 l 6
 624.76669396 103.916716409 624.995097764 101.958358205 624.995097764 100 c 4
 624.995097764 93.6003079798 622.555955019 87.2006159596 617.67766953 82.3223304703 c 4
 612.79938404 77.4440449811 606.39969202 75.0049022365 600 75.0049022365 c 4
 588.323737143 75.0049022365 578.182981332 83.719375182 575.690113647 94.1685211657 c 6
 433.073014451 691.964745343 l 5
 291.317715603 94.2014369482 l 6
 288.836059961 83.7366240019 278.693897827 75.0049022365 267 75.0049022365 c 4
 255.323737143 75.0049022365 245.182981332 83.719375182 242.690113647 94.1685211657 c 6
 75.6901136472 794.168521166 l 6
 75.23330604 796.083283591 75.0049022365 798.041641795 75.0049022365 800 c 4
 75.0049022365 811.985317419 84.1509805837 822.323663685 95.0686889661 824.507205362 c 6
 595.068688966 924.507205362 l 6
 596.694996973 924.832466963 598.347498486 924.995097764 600 924.995097764 c 4
EndSplineSet
EndChar

StartChar: uniE5A8
Encoding: 58792 58792 10
Width: 700
VWidth: 1024
Flags: HW
HStem: 100 0 600 0 700 0 800 0 900 0
VStem: 100 0 225 0 267 0 350 0 433 0 475 0 600 0
LayerCount: 2
Fore
SplineSet
225 242.202178371 m 5
 325.396328216 804.421616381 l 6
 326.741547354 811.954843555 331.991242835 818.836959414 338.509647567 822.208461945 c 5
 128.913042403 780.289140912 l 5
 225 242.202178371 l 5
600 924.995097764 m 4
 606.39969202 924.995097764 612.79938404 922.555955019 617.67766953 917.67766953 c 4
 622.555955019 912.79938404 624.995097764 906.39969202 624.995097764 900 c 4
 624.995097764 888.014682581 615.849019416 877.676336315 604.931311034 875.492794638 c 6
 352.032182191 824.91296887 l 5
 363.194911371 824.009095431 372.695359717 815.108163958 374.603671784 804.421616381 c 6
 475 242.202178371 l 5
 575.396328216 804.421616381 l 6
 577.392890525 815.602365311 587.840446941 824.995097764 600 824.995097764 c 4
 606.39969202 824.995097764 612.79938404 822.555955019 617.67766953 817.67766953 c 4
 622.555955019 812.79938404 624.995097764 806.39969202 624.995097764 800 c 4
 624.995097764 798.519853638 624.864622437 797.039707276 624.603671784 795.578383619 c 6
 499.603671784 95.5783836189 l 6
 497.607109475 84.3976346892 487.159553059 75.0049022365 475 75.0049022365 c 4
 462.846270779 75.0049022365 452.393365393 84.3949754293 450.396328216 95.5783836189 c 6
 350 657.797821629 l 5
 249.603671784 95.5783836189 l 6
 247.607109475 84.3976346892 237.159553059 75.0049022365 225 75.0049022365 c 4
 212.846270779 75.0049022365 202.393365393 84.3949754293 200.396328216 95.5783836189 c 6
 75.396328216 795.578383619 l 6
 75.135377563 797.039707276 75.0049022365 798.519853638 75.0049022365 800 c 4
 75.0049022365 811.985317419 84.1509805837 822.323663685 95.0686889661 824.507205362 c 6
 595.068688966 924.507205362 l 6
 596.694996973 924.832466963 598.347498486 924.995097764 600 924.995097764 c 4
EndSplineSet
EndChar

StartChar: uniE5A9
Encoding: 58793 58793 11
Width: 700
VWidth: 1024
Flags: HW
HStem: 100 0 367 0 500 0 633 0 900 0
VStem: 100 0 225 0 267 0 350 0 433 0 475 0 600 0
LayerCount: 2
Fore
SplineSet
75.0049022365 900 m 0
 75.0049022365 906.39969202 77.4440449811 912.79938404 82.3223304703 917.67766953 c 0
 87.2006159596 922.555955019 93.6003079798 924.995097764 100 924.995097764 c 0
 105.525974784 924.995097764 111.051949568 923.176499107 115.598446209 919.539301795 c 2
 615.598446209 519.539301795 l 2
 621.328621897 514.955161244 624.995097764 507.412755234 624.995097764 500 c 0
 624.995097764 492.584215546 621.334179737 485.049285028 615.598446209 480.460698205 c 2
 115.598446209 80.4606982052 l 2
 111.051949568 76.8235008927 105.525974784 75.0049022365 100 75.0049022365 c 0
 93.6003079798 75.0049022365 87.2006159596 77.4440449811 82.3223304703 82.3223304703 c 0
 77.4440449811 87.2006159596 75.0049022365 93.6003079798 75.0049022365 100 c 0
 75.0049022365 107.415784454 78.6658202625 114.950714972 84.401553791 119.539301795 c 2
 559.977426547 500 l 1
 84.401553791 880.460698205 l 2
 78.6713781025 885.044838756 75.0049022365 892.587244766 75.0049022365 900 c 0
EndSplineSet
EndChar

StartChar: uniE5AA
Encoding: 58794 58794 12
Width: 700
VWidth: 1024
Flags: HW
HStem: 100 0 600 0 700 0 800 0 900 0
VStem: 100 0 225 0 267 0 350 0 433 0 475 0 600 0
LayerCount: 2
Fore
SplineSet
75.0049022365 900 m 0
 75.0049022365 906.39969202 77.4440449811 912.79938404 82.3223304703 917.67766953 c 0
 87.2006159596 922.555955019 93.6003079798 924.995097764 100 924.995097764 c 0
 101.652501514 924.995097764 103.305003027 924.832466963 104.931311034 924.507205362 c 2
 604.931311034 824.507205362 l 2
 615.846845088 822.324098551 624.995097764 811.991237927 624.995097764 800 c 0
 624.995097764 788.014682581 615.849019416 777.676336315 604.931311034 775.492794638 c 2
 146.104927096 683.727517851 l 1
 619.222408864 115.986539729 l 2
 623.070868131 111.36838861 624.995097764 105.684194305 624.995097764 100 c 0
 624.995097764 93.6003079798 622.555955019 87.2006159596 617.67766953 82.3223304703 c 0
 612.79938404 77.4440449811 606.39969202 75.0049022365 600 75.0049022365 c 0
 592.767957937 75.0049022365 585.430705054 78.4297235691 580.777591136 84.0134602712 c 2
 80.7775911355 684.013460271 l 2
 76.9291318695 688.63161139 75.0049022365 694.315805695 75.0049022365 700 c 0
 75.0049022365 711.985317419 84.1509805837 722.323663685 95.0686889661 724.507205362 c 2
 472.532662158 800 l 1
 95.0686889661 875.492794638 l 2
 84.1531549116 877.675901449 75.0049022365 888.008762073 75.0049022365 900 c 0
EndSplineSet
EndChar

StartChar: uniE5AB
Encoding: 58795 58795 13
Width: 700
VWidth: 1024
Flags: HW
HStem: 100 0 600 0 700 0 800 0 900 0
VStem: 100 0 225 0 267 0 350 0 433 0 475 0 600 0
LayerCount: 2
Fore
SplineSet
75.0049022365 900 m 4
 75.0049022365 906.39969202 77.4440449811 912.79938404 82.3223304703 917.67766953 c 4
 87.2006159596 922.555955019 93.6003079798 924.995097764 100 924.995097764 c 4
 101.652501514 924.995097764 103.305003027 924.832466963 104.931311034 924.507205362 c 6
 604.931311034 824.507205362 l 6
 615.846845088 822.324098551 624.995097764 811.991237927 624.995097764 800 c 4
 624.995097764 788.014682581 615.849019416 777.676336315 604.931311034 775.492794638 c 6
 134.809117812 681.468355994 l 5
 350 165.010238742 l 5
 576.926754003 709.63444835 l 6
 580.484042731 718.171941296 589.809531968 724.995097764 600 724.995097764 c 4
 606.39969202 724.995097764 612.79938404 722.555955019 617.67766953 717.67766953 c 4
 622.555955019 712.79938404 624.995097764 706.39969202 624.995097764 700 c 4
 624.995097764 696.720257239 624.354480508 693.440514477 623.073245997 690.36555165 c 6
 373.073245997 90.3655516504 l 6
 369.515957269 81.8280587039 360.190468032 75.0049022365 350 75.0049022365 c 4
 339.812827429 75.0049022365 330.484606397 81.8267059058 326.926754003 90.3655516504 c 6
 76.9267540033 690.36555165 l 6
 75.6455194921 693.440514477 75.0049022365 696.720257239 75.0049022365 700 c 4
 75.0049022365 711.985317419 84.1509805837 722.323663685 95.0686889661 724.507205362 c 6
 472.532662158 800 l 5
 95.0686889661 875.492794638 l 6
 84.1531549116 877.675901449 75.0049022365 888.008762073 75.0049022365 900 c 4
EndSplineSet
EndChar

StartChar: uniE5AC
Encoding: 58796 58796 14
Width: 700
VWidth: 1024
Flags: HW
HStem: 100 0 600 0 700 0 800 0 900 0
VStem: 100 0 225 0 267 0 350 0 433 0 475 0 600 0
LayerCount: 2
Fore
SplineSet
75.0049022365 900 m 4
 75.0049022365 906.39969202 77.4440449811 912.79938404 82.3223304703 917.67766953 c 4
 87.2006159596 922.555955019 93.6003079798 924.995097764 100 924.995097764 c 4
 101.652501514 924.995097764 103.305003027 924.832466963 104.931311034 924.507205362 c 6
 604.931311034 824.507205362 l 6
 615.846845088 822.324098551 624.995097764 811.991237927 624.995097764 800 c 4
 624.995097764 788.014682581 615.849019416 777.676336315 604.931311034 775.492794638 c 6
 131.304094194 680.76735127 l 5
 266.927681622 193.496977277 l 5
 408.912826584 706.696296416 l 6
 411.686858526 716.722917893 421.646523896 724.995097764 433 724.995097764 c 4
 444.3352651 724.995097764 454.290955804 716.742698779 457.076837398 706.733543353 c 6
 624.076837398 106.733543353 l 6
 624.689010975 104.534117327 624.995097764 102.267058664 624.995097764 100 c 4
 624.995097764 93.6003079798 622.555955019 87.2006159596 617.67766953 82.3223304703 c 4
 612.79938404 77.4440449811 606.39969202 75.0049022365 600 75.0049022365 c 4
 588.6647349 75.0049022365 578.709044196 83.2573012208 575.923162602 93.266456647 c 6
 433.072318378 606.503022723 l 5
 291.087173416 93.3037035844 l 6
 288.313141474 83.277082107 278.353476104 75.0049022365 267 75.0049022365 c 4
 255.6647349 75.0049022365 245.709044196 83.2573012208 242.923162602 93.266456647 c 6
 75.9231626022 693.266456647 l 6
 75.3109890251 695.465882673 75.0049022365 697.732941336 75.0049022365 700 c 4
 75.0049022365 711.985317419 84.1509805837 722.323663685 95.0686889661 724.507205362 c 6
 472.532662158 800 l 5
 95.0686889661 875.492794638 l 6
 84.1531549116 877.675901449 75.0049022365 888.008762073 75.0049022365 900 c 4
EndSplineSet
EndChar

StartChar: uniE5AD
Encoding: 58797 58797 15
Width: 700
VWidth: 1024
Flags: HW
HStem: 100 0 600 0 700 0 800 0 900 0
VStem: 100 0 225 0 267 0 350 0 433 0 475 0 600 0
LayerCount: 2
Fore
SplineSet
225 222.569828829 m 5
 325.532898569 705.12774196 l 6
 327.039543628 712.359638244 332.176116152 718.932581101 338.509647567 722.208461945 c 5
 129.61265928 680.429064288 l 5
 225 222.569828829 l 5
75.0049022365 900 m 4
 75.0049022365 906.39969202 77.4440449811 912.79938404 82.3223304703 917.67766953 c 4
 87.2006159596 922.555955019 93.6003079798 924.995097764 100 924.995097764 c 4
 101.652501514 924.995097764 103.305003027 924.832466963 104.931311034 924.507205362 c 6
 604.931311034 824.507205362 l 6
 615.846845088 822.324098551 624.995097764 811.991237927 624.995097764 800 c 4
 624.995097764 788.014682581 615.849019416 777.676336315 604.931311034 775.492794638 c 6
 352.032182191 724.91296887 l 5
 362.972655943 724.027091996 372.31632356 715.451475742 374.467101431 705.12774196 c 6
 475 222.569828829 l 5
 575.532898569 705.12774196 l 6
 577.785686718 715.941125075 588.074897573 724.995097764 600 724.995097764 c 4
 606.39969202 724.995097764 612.79938404 722.555955019 617.67766953 717.67766953 c 4
 622.555955019 712.79938404 624.995097764 706.39969202 624.995097764 700 c 4
 624.995097764 698.280923152 624.819098986 696.561846304 624.467101431 694.87225804 c 6
 499.467101431 94.8722580402 l 6
 497.214313282 84.0588749252 486.925102427 75.0049022365 475 75.0049022365 c 4
 463.080854064 75.0049022365 452.786103243 84.0568756049 450.532898569 94.8722580402 c 6
 350 577.430171171 l 5
 249.467101431 94.8722580402 l 6
 247.214313282 84.0588749252 236.925102427 75.0049022365 225 75.0049022365 c 4
 213.080854064 75.0049022365 202.786103243 84.0568756049 200.532898569 94.8722580402 c 6
 75.5328985689 694.87225804 l 6
 75.1809010139 696.561846304 75.0049022365 698.280923152 75.0049022365 700 c 4
 75.0049022365 711.985317419 84.1509805837 722.323663685 95.0686889661 724.507205362 c 6
 472.532662158 800 l 5
 95.0686889661 875.492794638 l 6
 84.1531549116 877.675901449 75.0049022365 888.008762073 75.0049022365 900 c 4
EndSplineSet
EndChar

StartChar: uniE5AE
Encoding: 58798 58798 16
Width: 700
VWidth: 1024
Flags: HW
HStem: 100 0 367 0 500 0 633 0 900 0
VStem: 100 0 225 0 267 0 350 0 433 0 475 0 600 0
LayerCount: 2
Fore
SplineSet
600 924.995097764 m 0
 606.39969202 924.995097764 612.79938404 922.555955019 617.67766953 917.67766953 c 0
 622.555955019 912.79938404 624.995097764 906.39969202 624.995097764 900 c 0
 624.995097764 890.755498809 619.258773425 881.937448082 611.778740863 877.943110694 c 2
 153.161304346 633.041399594 l 1
 611.744665889 389.075051253 l 2
 619.239838158 385.087619605 624.995097764 376.261822575 624.995097764 367 c 0
 624.995097764 357.755498809 619.258773425 348.937448082 611.778740863 344.943110694 c 2
 111.778740863 77.9431106945 l 2
 108.11056551 75.9843050558 104.055282755 75.0049022365 100 75.0049022365 c 0
 93.6003079798 75.0049022365 87.2006159596 77.4440449811 82.3223304703 82.3223304703 c 0
 77.4440449811 87.2006159596 75.0049022365 93.6003079798 75.0049022365 100 c 0
 75.0049022365 109.244501191 80.741226575 118.062551918 88.2212591365 122.056889306 c 2
 546.838695654 366.958600406 l 1
 88.255334111 610.924948747 l 2
 80.7601618416 614.912380395 75.0049022365 623.738177425 75.0049022365 633 c 0
 75.0049022365 642.244501191 80.741226575 651.062551918 88.2212591365 655.056889306 c 2
 588.221259137 922.056889306 l 2
 591.88943449 924.015694944 595.944717245 924.995097764 600 924.995097764 c 0
EndSplineSet
EndChar

StartChar: uniE5AF
Encoding: 58799 58799 17
Width: 700
VWidth: 1024
Flags: HW
HStem: 100 0 600 0 700 0 800 0 900 0
VStem: 100 0 225 0 267 0 350 0 433 0 475 0 600 0
LayerCount: 2
Fore
SplineSet
600 924.995097764 m 0
 606.39969202 924.995097764 612.79938404 922.555955019 617.67766953 917.67766953 c 0
 622.555955019 912.79938404 624.995097764 906.39969202 624.995097764 900 c 0
 624.995097764 888.014682581 615.849019416 877.676336315 604.931311034 875.492794638 c 2
 227.467337842 800 l 1
 604.931311034 724.507205362 l 2
 615.846845088 722.324098551 624.995097764 711.991237927 624.995097764 700 c 0
 624.995097764 688.014682581 615.849019416 677.676336315 604.931311034 675.492794638 c 2
 150.707338856 584.648000203 l 1
 617.67766953 117.67766953 l 2
 622.555955019 112.79938404 624.995097764 106.39969202 624.995097764 100 c 0
 624.995097764 93.6003079798 622.555955019 87.2006159596 617.67766953 82.3223304703 c 0
 612.79938404 77.4440449811 606.39969202 75.0049022365 600 75.0049022365 c 0
 593.60030798 75.0049022365 587.20061596 77.4440449811 582.32233047 82.3223304703 c 2
 82.3223304703 582.32233047 l 2
 77.4440449811 587.20061596 75.0049022365 593.60030798 75.0049022365 600 c 0
 75.0049022365 611.985317419 84.1509805837 622.323663685 95.0686889661 624.507205362 c 2
 472.532662158 700 l 1
 95.0686889661 775.492794638 l 2
 84.1531549116 777.675901449 75.0049022365 788.008762073 75.0049022365 800 c 0
 75.0049022365 811.985317419 84.1509805837 822.323663685 95.0686889661 824.507205362 c 2
 595.068688966 924.507205362 l 2
 596.694996973 924.832466963 598.347498486 924.995097764 600 924.995097764 c 0
EndSplineSet
EndChar

StartChar: uniE5B0
Encoding: 58800 58800 18
Width: 700
VWidth: 1024
Flags: HW
HStem: 100 0 600 0 700 0 800 0 900 0
VStem: 100 0 225 0 267 0 350 0 433 0 475 0 600 0
LayerCount: 2
Fore
SplineSet
600 924.995097764 m 4
 606.39969202 924.995097764 612.79938404 922.555955019 617.67766953 917.67766953 c 4
 622.555955019 912.79938404 624.995097764 906.39969202 624.995097764 900 c 4
 624.995097764 888.014682581 615.849019416 877.676336315 604.931311034 875.492794638 c 6
 227.467337842 800 l 5
 604.931311034 724.507205362 l 6
 615.846845088 722.324098551 624.995097764 711.991237927 624.995097764 700 c 4
 624.995097764 688.014682581 615.849019416 677.676336315 604.931311034 675.492794638 c 6
 137.002698677 581.907072167 l 5
 350 155.91246952 l 5
 577.637692969 611.187855458 l 6
 581.525302788 618.963075097 590.48585837 624.995097764 600 624.995097764 c 4
 606.39969202 624.995097764 612.79938404 622.555955019 617.67766953 617.67766953 c 4
 622.555955019 612.79938404 624.995097764 606.39969202 624.995097764 600 c 4
 624.995097764 596.161266093 624.117500853 592.322532185 622.362307031 588.812144542 c 6
 372.362307031 88.8121445418 l 6
 368.474697212 81.0369249032 359.51414163 75.0049022365 350 75.0049022365 c 4
 340.487761259 75.0049022365 331.526345242 81.0348399958 327.637692969 88.8121445418 c 6
 77.6376929689 588.812144542 l 6
 75.8824991473 592.322532185 75.0049022365 596.161266093 75.0049022365 600 c 4
 75.0049022365 611.985317419 84.1509805837 622.323663685 95.0686889661 624.507205362 c 6
 472.532662158 700 l 5
 95.0686889661 775.492794638 l 6
 84.1531549116 777.675901449 75.0049022365 788.008762073 75.0049022365 800 c 4
 75.0049022365 811.985317419 84.1509805837 822.323663685 95.0686889661 824.507205362 c 6
 595.068688966 924.507205362 l 6
 596.694996973 924.832466963 598.347498486 924.995097764 600 924.995097764 c 4
EndSplineSet
EndChar

StartChar: uniE5B1
Encoding: 58801 58801 19
Width: 700
VWidth: 1024
Flags: HW
HStem: 100 0 600 0 700 0 800 0 900 0
VStem: 100 0 225 0 267 0 350 0 433 0 475 0 600 0
LayerCount: 2
Fore
SplineSet
600 924.995097764 m 4
 606.39969202 924.995097764 612.79938404 922.555955019 617.67766953 917.67766953 c 4
 622.555955019 912.79938404 624.995097764 906.39969202 624.995097764 900 c 4
 624.995097764 888.014682581 615.849019416 877.676336315 604.931311034 875.492794638 c 6
 227.467337842 800 l 5
 604.931311034 724.507205362 l 6
 615.846845088 722.324098551 624.995097764 711.991237927 624.995097764 700 c 4
 624.995097764 688.014682581 615.849019416 677.676336315 604.931311034 675.492794638 c 6
 132.690964074 581.044725246 l 5
 266.928791018 179.135063738 l 5
 409.280341424 607.904793876 l 6
 412.401257322 617.305142966 422.101653533 624.995097764 433 624.995097764 c 4
 443.87714641 624.995097764 453.572760538 617.326771761 456.705485423 607.947355939 c 6
 623.705485423 107.947355939 l 6
 624.565226983 105.37327941 624.995097764 102.686639705 624.995097764 100 c 4
 624.995097764 93.6003079798 622.555955019 87.2006159596 617.67766953 82.3223304703 c 4
 612.79938404 77.4440449811 606.39969202 75.0049022365 600 75.0049022365 c 4
 589.12285359 75.0049022365 579.427239462 82.6732282394 576.294514577 92.0526440607 c 6
 433.071208982 520.864936262 l 5
 290.719658576 92.0952061241 l 6
 287.598742678 82.6948570342 277.898346467 75.0049022365 267 75.0049022365 c 4
 256.12285359 75.0049022365 246.427239462 82.6732282394 243.294514577 92.0526440607 c 6
 76.2945145775 592.052644061 l 6
 75.4347730168 594.62672059 75.0049022365 597.313360295 75.0049022365 600 c 4
 75.0049022365 611.985317419 84.1509805837 622.323663685 95.0686889661 624.507205362 c 6
 472.532662158 700 l 5
 95.0686889661 775.492794638 l 6
 84.1531549116 777.675901449 75.0049022365 788.008762073 75.0049022365 800 c 4
 75.0049022365 811.985317419 84.1509805837 822.323663685 95.0686889661 824.507205362 c 6
 595.068688966 924.507205362 l 6
 596.694996973 924.832466963 598.347498486 924.995097764 600 924.995097764 c 4
EndSplineSet
EndChar

StartChar: uniE5B2
Encoding: 58802 58802 20
Width: 700
VWidth: 1024
Flags: HW
HStem: 100 0 600 0 700 0 800 0 900 0
VStem: 100 0 225 0 267 0 350 0 433 0 475 0 600 0
LayerCount: 2
Fore
SplineSet
225 203.077023346 m 5
 325.754137069 606.093571622 l 6
 327.458430588 612.910745697 332.435044319 619.066506042 338.509647567 622.208461945 c 5
 130.612021646 580.628936761 l 5
 225 203.077023346 l 5
600 924.995097764 m 4
 606.39969202 924.995097764 612.79938404 922.555955019 617.67766953 917.67766953 c 4
 622.555955019 912.79938404 624.995097764 906.39969202 624.995097764 900 c 4
 624.995097764 888.014682581 615.849019416 877.676336315 604.931311034 875.492794638 c 6
 227.467337842 800 l 5
 604.931311034 724.507205362 l 6
 615.846845088 722.324098551 624.995097764 711.991237927 624.995097764 700 c 4
 624.995097764 688.014682581 615.849019416 677.676336315 604.931311034 675.492794638 c 6
 352.032182191 624.91296887 l 5
 362.655051935 624.052809168 371.788963646 615.921168762 374.245862931 606.093571622 c 6
 475 203.077023346 l 5
 575.754137069 606.093571622 l 6
 578.339126578 616.433529658 588.429811016 624.995097764 600 624.995097764 c 4
 606.39969202 624.995097764 612.79938404 622.555955019 617.67766953 617.67766953 c 4
 622.555955019 612.79938404 624.995097764 606.39969202 624.995097764 600 c 4
 624.995097764 597.952193966 624.745352819 595.904387931 624.245862931 593.906428378 c 6
 499.245862931 93.9064283781 l 6
 496.660873422 83.5664703416 486.570188984 75.0049022365 475 75.0049022365 c 4
 463.434339876 75.0049022365 453.33973049 83.564054694 450.754137069 93.9064283781 c 6
 350 496.922976654 l 5
 249.245862931 93.9064283781 l 6
 246.660873422 83.5664703416 236.570188984 75.0049022365 225 75.0049022365 c 4
 213.434339876 75.0049022365 203.33973049 83.564054694 200.754137069 93.9064283781 c 6
 75.7541370689 593.906428378 l 6
 75.2546471806 595.904387931 75.0049022365 597.952193966 75.0049022365 600 c 4
 75.0049022365 611.985317419 84.1509805837 622.323663685 95.0686889661 624.507205362 c 6
 472.532662158 700 l 5
 95.0686889661 775.492794638 l 6
 84.1531549116 777.675901449 75.0049022365 788.008762073 75.0049022365 800 c 4
 75.0049022365 811.985317419 84.1509805837 822.323663685 95.0686889661 824.507205362 c 6
 595.068688966 924.507205362 l 6
 596.694996973 924.832466963 598.347498486 924.995097764 600 924.995097764 c 4
EndSplineSet
EndChar

StartChar: uniE5B3
Encoding: 58803 58803 21
Width: 700
VWidth: 1024
Flags: HW
HStem: 100 0 367 0 500 0 633 0 900 0
VStem: 101 0 226 0 268 0 351 0 434 0 476 0 601 0
LayerCount: 2
Fore
SplineSet
117.925172843 746.116315813 m 4
 112.306774635 746.116315813 106.661128854 746.004902236 101 746.004902236 c 4
 94.6003079798 746.004902236 88.2006159596 748.444044981 83.3223304703 753.32233047 c 4
 78.4440449811 758.20061596 76.0049022365 764.60030798 76.0049022365 771 c 4
 76.0049022365 777.39969202 78.4440449811 783.79938404 83.3223304703 788.67766953 c 4
 91.9776849512 797.333024011 102.807590947 796.10964167 118.362248192 796.10964167 c 4
 203.91560518 796.10964167 283.527246307 787.580613688 350.976097337 766.389768059 c 5
 418.422014153 787.587231007 498.035972703 796.109642365 583.637649718 796.109642365 c 4
 599.172352692 796.109642365 610.026193195 797.329145864 618.67766953 788.67766953 c 4
 623.555955019 783.79938404 625.995097764 777.39969202 625.995097764 771 c 4
 625.995097764 764.60030798 623.555955019 758.20061596 618.67766953 753.32233047 c 4
 613.79938404 748.444044981 607.39969202 746.004902236 601 746.004902236 c 4
 595.338872108 746.004902236 589.693128673 746.116316459 584.074731503 746.116316459 c 4
 528.882429628 746.116316459 475.77794803 742.390240209 427.512893893 733.576355653 c 5
 449.390580679 721.051674973 469.054057466 706.366770522 486.140330216 689.280497772 c 4
 532.042165081 643.378662907 558.688372143 580.138138808 559.185053765 499.15446992 c 4
 559.26189125 486.6261598 559.378160664 474.320344463 559.378160664 461.468597614 c 4
 559.378160664 363.711302444 549.626789504 280.057293239 496.415249182 226.845752917 c 4
 463.834142475 194.26464621 415.662928787 175.004902236 351 175.004902236 c 4
 286.33868004 175.004902236 238.163591422 194.266912313 205.584750818 226.845752917 c 4
 152.314443207 280.116060528 142.621839336 363.595438861 142.621839336 461.468597614 c 4
 142.621839336 474.319736817 142.738108347 486.62609401 142.814946235 499.15446992 c 4
 143.31159098 580.138242762 169.957777877 643.378813719 215.85961888 689.280654722 c 4
 232.946152956 706.367188798 252.602237011 721.051200725 274.467924481 733.574543316 c 5
 226.20424703 742.388439897 173.104282006 746.116315813 117.925172843 746.116315813 c 4
351 224.99547927 m 4
 406.278064217 225.311988615 439.32475465 240.465936504 461.059910122 262.201091976 c 4
 481.429666429 282.570848283 493.911977718 311.531077897 500.943326259 346.560352342 c 4
 508.189724148 382.660974993 509.356427942 424.190255362 509.356427942 465.20591081 c 4
 509.356427942 476.497899219 509.264394071 487.662218646 509.19580561 498.84553008 c 4
 508.766587756 568.829268179 486.896767179 617.813382691 450.784991157 653.925158713 c 4
 424.85297474 679.85717513 390.801909768 699.352983213 350.990966089 713.574689403 c 5
 311.191550144 699.354157417 277.148736956 679.85909468 251.214957939 653.925315663 c 4
 215.103194833 617.813552557 193.233380695 568.829409953 192.80419439 498.84553008 c 4
 192.73560643 487.662300419 192.643572058 476.498033183 192.643572058 465.20591081 c 4
 192.643572058 424.190255362 193.810275852 382.660974993 201.056673741 346.560352342 c 4
 208.088022282 311.531077897 220.570333571 282.570848283 240.940089878 262.201091976 c 4
 262.67524535 240.465936504 295.721935783 225.311988615 351 224.99547927 c 4
EndSplineSet
EndChar
